<svg width="1920" height="1080" xmlns="http://www.w3.org/2000/svg">
  <!-- Background gradient -->
  <defs>
    <linearGradient id="bgGradient" x1="0%" y1="0%" x2="100%" y2="100%">
      <stop offset="0%" stop-color="#0F172A" />
      <stop offset="100%" stop-color="#1E293B" />
    </linearGradient>
    
    <!-- Pattern definitions -->
    <pattern id="gridPattern" width="50" height="50" patternUnits="userSpaceOnUse">
      <path d="M 50 0 L 0 0 0 50" fill="none" stroke="#334155" stroke-width="0.5" opacity="0.3"/>
    </pattern>
  </defs>
  
  <!-- Main background -->
  <rect width="100%" height="100%" fill="url(#bgGradient)" />
  
  <!-- Grid pattern -->
  <rect width="100%" height="100%" fill="url(#gridPattern)" />
  
  <!-- SEO related elements -->
  
  <!-- Search icon -->
  <circle cx="400" cy="300" r="120" fill="none" stroke="#60A5FA" stroke-width="5" opacity="0.5" />
  <circle cx="400" cy="300" r="40" fill="none" stroke="#60A5FA" stroke-width="8" />
  <line x1="467" y1="367" x2="520" y2="420" stroke="#60A5FA" stroke-width="10" stroke-linecap="round" />
  
  <!-- Graph illustration -->
  <g transform="translate(800, 400)">
    <line x1="0" y1="0" x2="0" y2="250" stroke="#94A3B8" stroke-width="3" />
    <line x1="0" y1="250" x2="400" y2="250" stroke="#94A3B8" stroke-width="3" />
    
    <!-- Bar charts -->
    <rect x="50" y="150" width="40" height="100" fill="#0EA5E9" opacity="0.7" />
    <rect x="120" y="100" width="40" height="150" fill="#0EA5E9" opacity="0.8" />
    <rect x="190" y="50" width="40" height="200" fill="#0EA5E9" opacity="0.9" />
    <rect x="260" y="30" width="40" height="220" fill="#0EA5E9" />
    <rect x="330" y="80" width="40" height="170" fill="#0EA5E9" opacity="0.85" />
  </g>
  
  <!-- Keywords element -->
  <g transform="translate(1400, 300)">
    <text x="0" y="0" font-family="Arial" font-size="24" fill="#E2E8F0" opacity="0.4">SEO</text>
    <text x="40" y="40" font-family="Arial" font-size="18" fill="#E2E8F0" opacity="0.3">keywords</text>
    <text x="-30" y="80" font-family="Arial" font-size="22" fill="#E2E8F0" opacity="0.4">analytics</text>
    <text x="50" y="120" font-family="Arial" font-size="20" fill="#E2E8F0" opacity="0.5">ranking</text>
    <text x="-20" y="160" font-family="Arial" font-size="26" fill="#E2E8F0" opacity="0.3">optimization</text>
    <text x="60" y="200" font-family="Arial" font-size="18" fill="#E2E8F0" opacity="0.4">traffic</text>
  </g>
  
  <!-- Floating particles -->
  <circle cx="200" cy="200" r="5" fill="#38BDF8" opacity="0.6" />
  <circle cx="1100" cy="300" r="6" fill="#38BDF8" opacity="0.5" />
  <circle cx="600" cy="700" r="4" fill="#38BDF8" opacity="0.7" />
  <circle cx="1600" cy="500" r="7" fill="#38BDF8" opacity="0.4" />
  <circle cx="300" cy="900" r="5" fill="#38BDF8" opacity="0.6" />
  <circle cx="1300" cy="800" r="4" fill="#38BDF8" opacity="0.5" />
  <circle cx="900" cy="150" r="6" fill="#38BDF8" opacity="0.7" />
  <circle cx="1700" cy="700" r="5" fill="#38BDF8" opacity="0.6" />
</svg> 